#N canvas 339 273 858 420 12;
#X obj 60 140 inlet~;
#X obj 150 350 +~, f 5;
#X text 60 240 x[n-N];
#X obj 150 310 -~;
#X text 170 240 g*x[n];
#X obj 148 389 outlet~;
#X text 200 350 g*y[n-N];
#X text 50 350 x[n-N]-g*x[n];
#X text 320 150 y[n];
#X text 220 390 x[n-N]-g*x[n]+g*y[n-N];
#X text 50 20 Allpass filter is defined by the transfer funciton as
below:;
#X text 50 50 AP(g \, N) = (-g+Z^(-N))/(1-g*Z^(-N));
#X text 50 80 Write it in terms of difference equation:;
#X text 50 110 y[n] = x[n-N] -g*x[n] + g*y[n-N];
#X text 370 240 g*y[n-N];
#X text 180 180 delay in \$3 ms;
#X text 440 180 Another delay line for feedback term y[n-N], f 13
;
#X obj 60 180 delwrite~ \$1 \$4;
#X obj 60 210 delread~ \$1 \$4;
#X obj 120 240 *~ \$3;
#X obj 320 180 delwrite~ \$2 \$4;
#X obj 320 210 delread~ \$2 \$4;
#X obj 320 240 *~ \$3;
#X connect 0 0 17 0;
#X connect 0 0 19 0;
#X connect 1 0 5 0;
#X connect 1 0 20 0;
#X connect 3 0 1 0;
#X connect 18 0 3 0;
#X connect 19 0 3 1;
#X connect 21 0 22 0;
#X connect 22 0 1 1;
