#N canvas 179 25 736 463 12;
#X obj 70 -80 expr $f1/44.1;
#X obj 110 -140 unpack 0 0 0;
#X text 110 -210 pmts: allpass-N;
#X obj 180 -80 expr $f1/44.1;
#X obj 290 -80 expr $f1/44.1;
#X floatatom 137 82 7 0 0 0 - - -, f 7;
#X floatatom 197 82 7 0 0 0 - - -, f 7;
#X floatatom 267 82 7 0 0 0 - - -, f 7;
#X text 310 -210 pmts: FBCF-N;
#X obj 320 -140 unpack 0 0 0 0;
#X obj 400 -80 expr $f1/44.1;
#X obj 150 -30 pack 0 0 0 0;
#X floatatom 327 82 8 0 0 0 - - -, f 8;
#X obj 160 30 unpack $f1 $f2 $f3 $f4;
#X obj 112 -183 inlet;
#X obj 315 -182 inlet;
#X obj 140 130 outlet;
#X obj 200 130 outlet;
#X obj 260 130 outlet;
#X obj 320 130 outlet;
#X text 402 76 pmts in milliseconds;
#X connect 0 0 11 0;
#X connect 1 0 0 0;
#X connect 1 1 3 0;
#X connect 1 2 4 0;
#X connect 3 0 11 1;
#X connect 4 0 11 2;
#X connect 5 0 16 0;
#X connect 6 0 17 0;
#X connect 7 0 18 0;
#X connect 9 0 0 0;
#X connect 9 1 3 0;
#X connect 9 2 4 0;
#X connect 9 3 10 0;
#X connect 10 0 11 3;
#X connect 11 0 13 0;
#X connect 12 0 19 0;
#X connect 13 0 5 0;
#X connect 13 1 6 0;
#X connect 13 2 7 0;
#X connect 13 3 12 0;
#X connect 14 0 1 0;
#X connect 15 0 9 0;
